<svg width="55" height="50" viewBox="0 0 55 50" fill="none" xmlns="http://www.w3.org/2000/svg">
<g clip-path="url(#clip0_0_2165)">
<path d="M53.4504 38.6116L32.6893 5.50995C31.5349 3.66933 29.4672 2.57031 27.1581 2.57031C24.8491 2.57031 22.7813 3.66933 21.6269 5.50995L0.865902 38.6115C-0.288634 40.4524 -0.288634 42.6502 0.865902 44.4909C2.02044 46.3316 4.08806 47.4306 6.39713 47.4306H47.9191C50.228 47.4306 52.2957 46.3316 53.4504 44.491C54.6049 42.6502 54.6049 40.4524 53.4504 38.6116ZM50.6945 43.0264C50.1151 43.95 49.0776 44.5014 47.9191 44.5014H6.39713C5.23846 44.5014 4.20093 43.95 3.6217 43.0264C3.04247 42.1027 3.04247 41 3.6217 40.0764L24.3829 6.9747C24.9621 6.05107 25.9996 5.4997 27.1582 5.4997C28.3167 5.4997 29.3543 6.05107 29.9335 6.9747L50.6946 40.0764C51.2737 41 51.2737 42.1027 50.6945 43.0264Z" fill="#3766FC"/>
<path d="M28.7495 17.1875H25.5674V31.8342H28.7495V17.1875Z" fill="#3766FC"/>
<path d="M27.1577 34.7656C25.9878 34.7656 25.0361 35.6417 25.0361 36.7186C25.0361 37.7954 25.9878 38.6715 27.1577 38.6715C28.3274 38.6715 29.2792 37.7954 29.2792 36.7186C29.2792 35.6417 28.3275 34.7656 27.1577 34.7656Z" fill="#3766FC"/>
</g>
<defs>
<clipPath id="clip0_0_2165">
<rect width="54.3162" height="50" fill="white"/>
</clipPath>
</defs>
</svg>
