<svg width="32" height="32" viewBox="0 0 32 32" fill="none" xmlns="http://www.w3.org/2000/svg">
<rect width="32" height="32" rx="7" fill="#437EF0"/>
<path d="M22.0182 18.724L19.9015 18.4823C19.3932 18.424 18.8932 18.599 18.5348 18.9573L17.0015 20.4906C14.6432 19.2906 12.7098 17.3656 11.5098 14.999L13.0515 13.4573C13.4098 13.099 13.5848 12.599 13.5265 12.0906L13.2848 9.99063C13.1848 9.14896 12.4765 8.51562 11.6265 8.51562H10.1848C9.24317 8.51562 8.45983 9.29896 8.51817 10.2406C8.95983 17.3573 14.6515 23.0406 21.7598 23.4823C22.7015 23.5406 23.4848 22.7573 23.4848 21.8156V20.374C23.4932 19.5323 22.8598 18.824 22.0182 18.724Z" fill="white"/>
</svg>
