<svg width="30" height="31" viewBox="0 0 30 31" fill="none" xmlns="http://www.w3.org/2000/svg">
<g clip-path="url(#clip0_0_2187)">
<path d="M28.1836 7.58984H21.1523V4.07422H19.3945V2.25781H21.1523V0.5H8.84766V2.25781H10.6055V4.07422H8.84766V23.4095H28.1836V7.58984ZM12.3633 2.25781H17.6367V4.07422H12.3633V2.25781ZM15.8789 21.6523H14.1211V19.8945H15.8789V21.6523ZM19.3945 21.6523H17.6367V18.1367H12.3633V21.6523H10.6055V5.83203H19.3945V21.6523ZM26.4258 21.6523H21.1523V9.34766H26.4258V21.6523Z" fill="#3766FC"/>
<path d="M12.3633 7.58984H14.1211V9.34766H12.3633V7.58984Z" fill="#3766FC"/>
<path d="M15.8789 7.58984H17.6367V9.34766H15.8789V7.58984Z" fill="#3766FC"/>
<path d="M12.3633 11.1055H14.1211V12.8633H12.3633V11.1055Z" fill="#3766FC"/>
<path d="M15.8789 11.1055H17.6367V12.8633H15.8789V11.1055Z" fill="#3766FC"/>
<path d="M12.3633 14.6211H14.1211V16.3789H12.3633V14.6211Z" fill="#3766FC"/>
<path d="M15.8789 14.6211H17.6367V16.3789H15.8789V14.6211Z" fill="#3766FC"/>
<path d="M22.9102 11.1055H24.668V12.8633H22.9102V11.1055Z" fill="#3766FC"/>
<path d="M22.9102 14.6211H24.668V16.3789H22.9102V14.6211Z" fill="#3766FC"/>
<path d="M22.9102 18.1367H24.668V19.8945H22.9102V18.1367Z" fill="#3766FC"/>
<path d="M28.1836 30.5V25.168H26.4258V26.9258H21.1523V25.168H19.3945V26.9258H10.6055V25.168H8.84766V30.5H10.6055V28.6836H19.3945V30.5H21.1523V28.6836H26.4258V30.5H28.1836Z" fill="#3766FC"/>
<path d="M7.08984 21.6523H5.33203V5.83203H7.08984V4.07422H5.33203V2.25781H7.08984V0.5H1.81641V2.25781H3.57422V4.07422H1.81641V5.83203H3.57422V21.6523H1.81641V23.4102H7.08984V21.6523Z" fill="#3766FC"/>
</g>
<defs>
<clipPath id="clip0_0_2187">
<rect width="30" height="30" fill="white" transform="translate(0 0.5)"/>
</clipPath>
</defs>
</svg>
