<svg width="20" height="20" viewBox="0 0 20 20" fill="none" xmlns="http://www.w3.org/2000/svg">
<path d="M16.0182 12.724L13.9015 12.4823C13.3932 12.424 12.8932 12.599 12.5349 12.9573L11.0015 14.4906C8.6432 13.2906 6.70986 11.3656 5.50986 8.99896L7.05153 7.45729C7.40986 7.09896 7.58486 6.59896 7.52653 6.09062L7.28486 3.99063C7.18486 3.14896 6.47653 2.51562 5.62653 2.51562H4.18486C3.2432 2.51562 2.45986 3.29896 2.5182 4.24062C2.95986 11.3573 8.65153 17.0406 15.7599 17.4823C16.7015 17.5406 17.4849 16.7573 17.4849 15.8156V14.374C17.4932 13.5323 16.8599 12.824 16.0182 12.724Z" fill="white"/>
</svg>
