<svg width="49" height="48" viewBox="0 0 49 48" fill="none" xmlns="http://www.w3.org/2000/svg">
<g id="Icons / Show all">
<g id="&#240;&#159;&#142;&#168; Color">
<path d="M29.5 21.019L29.5 30.5C29.5 31.3284 30.1716 32 31 32C31.8284 32 32.5 31.3284 32.5 30.5L32.5 17.5C32.5 16.6716 31.8284 16 31 16L18 16C17.1716 16 16.5 16.6716 16.5 17.5C16.5 18.3284 17.1716 19 18 19L27.2773 19L16.9341 29.4444C16.3511 30.033 16.3557 30.9828 16.9444 31.5657C17.533 32.1486 18.4827 32.144 19.0657 31.5554L29.5 21.019Z" fill="white"/>
<path fill-rule="evenodd" clip-rule="evenodd" d="M24.5 44C13.4543 44 4.5 35.0457 4.5 24C4.5 12.9543 13.4543 4 24.5 4C35.5457 4 44.5 12.9543 44.5 24C44.5 35.0457 35.5457 44 24.5 44ZM7.5 24C7.5 33.3888 15.1112 41 24.5 41C33.8888 41 41.5 33.3888 41.5 24C41.5 14.6112 33.8888 7 24.5 7C15.1112 7 7.5 14.6112 7.5 24Z" fill="white"/>
</g>
</g>
</svg>
