<svg width="38" height="38" viewBox="0 0 38 38" fill="none" xmlns="http://www.w3.org/2000/svg">
<path d="M0 18.9412C0 29.4021 8.48025 37.8824 18.9412 37.8824C29.4021 37.8824 37.8824 29.4021 37.8824 18.9412C37.8824 8.48025 29.4021 0 18.9412 0C8.48025 0 0 8.48025 0 18.9412Z" fill="#0088CC"/>
<path d="M9.58922 18.5975C14.6737 16.3822 18.0641 14.9218 19.7606 14.2162C24.6042 12.2016 25.6106 11.8516 26.2666 11.84C26.4109 11.8375 26.7335 11.8733 26.9425 12.0429C27.1189 12.186 27.1675 12.3794 27.1907 12.5152C27.2139 12.6509 27.2429 12.9602 27.2199 13.2018C26.9574 15.9597 25.8217 22.6523 25.2439 25.7411C24.9994 27.0482 24.518 27.4864 24.0519 27.5293C23.0391 27.6225 22.27 26.8599 21.289 26.2169C19.7539 25.2106 18.8867 24.5842 17.3967 23.6023C15.6747 22.4676 16.791 21.8439 17.7723 20.8246C18.0292 20.5578 22.4918 16.4987 22.5781 16.1305C22.589 16.0845 22.599 15.9128 22.497 15.8222C22.395 15.7315 22.2445 15.7625 22.1359 15.7872C21.9819 15.8221 19.5296 17.443 14.7791 20.6497C14.083 21.1277 13.4525 21.3606 12.8876 21.3484C12.2649 21.3349 11.067 20.9963 10.1765 20.7068C9.08421 20.3518 8.21611 20.164 8.2917 19.5611C8.33107 19.247 8.76358 18.9258 9.58922 18.5975Z" fill="white"/>
</svg>
