<svg width="70" height="70" viewBox="0 0 70 70" fill="none" xmlns="http://www.w3.org/2000/svg">
<rect width="70" height="70" rx="10" fill="url(#paint0_linear_0_3102)"/>
<path d="M40.5293 26.7998C40.5293 25.6952 41.4247 24.7998 42.5293 24.7998H45.9853C47.2655 24.7998 48.4683 25.4126 49.221 26.4482L54.9999 34.3998H40.5293V26.7998Z" stroke="white" stroke-width="3" stroke-linecap="round" stroke-linejoin="round"/>
<path d="M40.5293 34.4004V32.9004C39.7009 32.9004 39.0293 33.572 39.0293 34.4004H40.5293ZM54.9999 34.4004H56.4999C56.4999 33.572 55.8283 32.9004 54.9999 32.9004V34.4004ZM40.5293 44.0004H39.0293C39.0293 44.8288 39.7009 45.5004 40.5293 45.5004V44.0004ZM43.475 44.0004V45.5004C44.1468 45.5004 44.7367 45.0537 44.9188 44.407L43.475 44.0004ZM43.6492 43.4992L45.034 44.0756V44.0756L43.6492 43.4992ZM46.0563 41.1046L45.4846 39.7177L46.0563 41.1046ZM49.4729 41.1046L48.9013 42.4914L49.4729 41.1046ZM51.88 43.4992L53.2648 42.9228L53.2648 42.9228L51.88 43.4992ZM52.0542 44.0004L50.6104 44.407C50.7925 45.0537 51.3824 45.5004 52.0542 45.5004V44.0004ZM54.9999 44.0004V45.5004C55.8283 45.5004 56.4999 44.8288 56.4999 44.0004H54.9999ZM40.5293 35.9004H54.9999V32.9004H40.5293V35.9004ZM42.0293 44.0004V34.4004H39.0293V44.0004H42.0293ZM43.475 42.5004H40.5293V45.5004H43.475V42.5004ZM44.9188 44.407C44.9504 44.295 44.9888 44.1843 45.034 44.0756L42.2644 42.9228C42.1728 43.1426 42.0951 43.3667 42.0312 43.5938L44.9188 44.407ZM45.034 44.0756C45.3313 43.3615 45.9076 42.7882 46.6279 42.4914L45.4846 39.7177C44.0339 40.3157 42.8695 41.469 42.2644 42.9228L45.034 44.0756ZM46.6279 42.4914C47.3514 42.1931 48.1778 42.1931 48.9013 42.4914L50.0446 39.7177C48.5887 39.1177 46.9404 39.1177 45.4846 39.7177L46.6279 42.4914ZM48.9013 42.4914C49.6215 42.7882 50.1979 43.3615 50.4952 44.0756L53.2648 42.9228C52.6597 41.469 51.4953 40.3157 50.0446 39.7177L48.9013 42.4914ZM50.4952 44.0756C50.5404 44.1843 50.5788 44.295 50.6104 44.407L53.498 43.5938C53.4341 43.3667 53.3563 43.1426 53.2648 42.9228L50.4952 44.0756ZM54.9999 42.5004H52.0542V45.5004H54.9999V42.5004ZM53.4999 34.4004V44.0004H56.4999V34.4004H53.4999Z" fill="white"/>
<path d="M46.0566 41.1046C47.1463 40.6554 48.3836 40.6554 49.4733 41.1046V41.1046C50.5588 41.552 51.4292 42.4152 51.8803 43.4992V43.4992C52.3336 44.588 52.3336 45.8127 51.8803 46.9016V46.9016C51.4292 47.9856 50.5588 48.8488 49.4733 49.2962V49.2962C48.3836 49.7454 47.1463 49.7454 46.0566 49.2962V49.2962C44.9711 48.8488 44.1007 47.9856 43.6495 46.9016V46.9016C43.1963 45.8127 43.1963 44.588 43.6495 43.4992V43.4992C44.1007 42.4152 44.9711 41.552 46.0566 41.1046V41.1046Z" stroke="white" stroke-width="3" stroke-linecap="round" stroke-linejoin="round"/>
<path d="M14 44H12.5C12.5 44.8284 13.1716 45.5 14 45.5V44ZM17.5486 44V45.5C18.2204 45.5 18.8103 45.0533 18.9925 44.4066L17.5486 44ZM17.7228 43.4988L19.1076 44.0752L19.1076 44.0752L17.7228 43.4988ZM20.1299 41.1042L20.7015 42.491H20.7015L20.1299 41.1042ZM23.5466 41.1042L22.9749 42.491H22.9749L23.5466 41.1042ZM25.9536 43.4988L24.5688 44.0752L24.5688 44.0752L25.9536 43.4988ZM26.1278 44L24.684 44.4066C24.8661 45.0533 25.456 45.5 26.1278 45.5V44ZM40.5294 44V45.5C41.3578 45.5 42.0294 44.8284 42.0294 44H40.5294ZM15.5 24C15.5 22.6193 16.6193 21.5 18 21.5V18.5C14.9624 18.5 12.5 20.9624 12.5 24H15.5ZM15.5 44V24H12.5V44H15.5ZM17.5486 42.5H14V45.5H17.5486V42.5ZM18.9925 44.4066C19.024 44.2946 19.0624 44.1839 19.1076 44.0752L16.338 42.9224C16.2465 43.1423 16.1687 43.3663 16.1048 43.5934L18.9925 44.4066ZM19.1076 44.0752C19.4049 43.3611 19.9813 42.7879 20.7015 42.491L19.5583 39.7174C18.1075 40.3153 16.9431 41.4686 16.338 42.9224L19.1076 44.0752ZM20.7015 42.491C21.4251 42.1927 22.2514 42.1927 22.9749 42.491L24.1182 39.7174C22.6624 39.1173 21.0141 39.1173 19.5583 39.7174L20.7015 42.491ZM22.9749 42.491C23.6952 42.7879 24.2716 43.3611 24.5688 44.0752L27.3385 42.9224C26.7334 41.4686 25.569 40.3153 24.1182 39.7174L22.9749 42.491ZM24.5688 44.0752C24.6141 44.1839 24.6525 44.2946 24.684 44.4066L27.5717 43.5934C27.5077 43.3663 27.43 43.1423 27.3385 42.9224L24.5688 44.0752ZM40.5294 42.5H26.1278V45.5H40.5294V42.5ZM39.0294 24V44H42.0294V24H39.0294ZM36.5294 21.5C37.9101 21.5 39.0294 22.6193 39.0294 24H42.0294C42.0294 20.9624 39.567 18.5 36.5294 18.5V21.5ZM18 21.5H36.5294V18.5H18V21.5Z" fill="white"/>
<path d="M20.1298 41.1046C21.2195 40.6554 22.4568 40.6554 23.5465 41.1046V41.1046C24.632 41.552 25.5024 42.4152 25.9536 43.4992V43.4992C26.4068 44.588 26.4068 45.8127 25.9536 46.9016V46.9016C25.5024 47.9856 24.632 48.8488 23.5465 49.2962V49.2962C22.4568 49.7454 21.2195 49.7454 20.1298 49.2962V49.2962C19.0443 48.8488 18.174 47.9856 17.7228 46.9016V46.9016C17.2695 45.8127 17.2695 44.588 17.7228 43.4992V43.4992C18.174 42.4152 19.0443 41.552 20.1298 41.1046V41.1046Z" stroke="white" stroke-width="3" stroke-linecap="round" stroke-linejoin="round"/>
<defs>
<linearGradient id="paint0_linear_0_3102" x1="21.7871" y1="-8.88461" x2="33.9309" y2="70.1642" gradientUnits="userSpaceOnUse">
<stop stop-color="#A8CBFF"/>
<stop offset="1" stop-color="#7BB0FF"/>
</linearGradient>
</defs>
</svg>
