<svg width="70" height="70" viewBox="0 0 70 70" fill="none" xmlns="http://www.w3.org/2000/svg">
<rect width="70" height="70" rx="10" fill="url(#paint0_linear_279_939)"/>
<g clip-path="url(#clip0_279_939)">
<path d="M34.9999 21.5L35.6842 20.1652C35.2546 19.9449 34.7452 19.9449 34.3156 20.1652L34.9999 21.5ZM23.5093 23.8845L23.606 22.3876C22.8661 22.3399 22.2023 22.8398 22.0439 23.5642L23.5093 23.8845ZM23.3353 32.43L24.8125 32.1696L24.8125 32.1696L23.3353 32.43ZM30.8829 45.5029L29.9187 46.652L29.9187 46.652L30.8829 45.5029ZM34.9999 48.2354L34.3156 49.5702C34.7452 49.7904 35.2546 49.7904 35.6843 49.5702L34.9999 48.2354ZM39.1169 45.5029L40.0811 46.652L40.0811 46.652L39.1169 45.5029ZM46.6646 32.43L48.1418 32.6905L48.1418 32.6905L46.6646 32.43ZM46.4906 23.8845L47.956 23.5642C47.7976 22.8398 47.1338 22.3399 46.3939 22.3876L46.4906 23.8845ZM34.3156 20.1652C31.4309 21.6441 28.2171 22.4304 24.932 22.4304V25.4304C28.6963 25.4304 32.3789 24.5294 35.6842 22.8348L34.3156 20.1652ZM24.932 22.4304C24.4885 22.4304 24.0462 22.4161 23.606 22.3876L23.4126 25.3814C23.9171 25.414 24.4238 25.4304 24.932 25.4304V22.4304ZM22.0439 23.5642C21.3927 26.5428 21.3206 29.6424 21.8581 32.6905L24.8125 32.1696C24.3435 29.5094 24.4063 26.8045 24.9747 24.2049L22.0439 23.5642ZM21.8581 32.6905C22.8202 38.1472 25.6742 43.0904 29.9187 46.652L31.8471 44.3538C28.1429 41.2456 25.6522 36.9316 24.8125 32.1696L21.8581 32.6905ZM29.9187 46.652C31.2796 47.7939 32.7556 48.7704 34.3156 49.5702L35.6843 46.9005C34.3229 46.2026 33.0348 45.3504 31.8471 44.3538L29.9187 46.652ZM35.6843 49.5702C37.2442 48.7704 38.7202 47.7939 40.0811 46.652L38.1528 44.3538C36.965 45.3504 35.677 46.2026 34.3156 46.9005L35.6843 49.5702ZM40.0811 46.652C44.3257 43.0904 47.1796 38.1472 48.1418 32.6905L45.1874 32.1696C44.3477 36.9316 41.857 41.2456 38.1528 44.3538L40.0811 46.652ZM48.1418 32.6905C48.6792 29.6424 48.6072 26.5428 47.956 23.5642L45.0252 24.2049C45.5935 26.8045 45.6564 29.5094 45.1874 32.1696L48.1418 32.6905ZM46.3939 22.3876C45.9536 22.4161 45.5113 22.4304 45.0678 22.4304V25.4304C45.576 25.4304 46.0827 25.414 46.5872 25.3814L46.3939 22.3876ZM45.0678 22.4304C41.7827 22.4304 38.5689 21.6441 35.6842 20.1652L34.3156 22.8348C37.6209 24.5294 41.3034 25.4304 45.0678 25.4304V22.4304Z" fill="white"/>
</g>
<path d="M31.9995 34.145L33.1578 35.3033C33.9389 36.0844 35.2052 36.0844 35.9862 35.3033L39.717 31.5725" stroke="white" stroke-width="3" stroke-linecap="round" stroke-linejoin="round"/>
<defs>
<linearGradient id="paint0_linear_279_939" x1="21.7871" y1="-8.88461" x2="33.9309" y2="70.1642" gradientUnits="userSpaceOnUse">
<stop stop-color="#A8CBFF"/>
<stop offset="1" stop-color="#7BB0FF"/>
</linearGradient>
<clipPath id="clip0_279_939">
<rect width="28" height="30" fill="white" transform="translate(21 20)"/>
</clipPath>
</defs>
</svg>
