<svg width="39" height="38" viewBox="0 0 39 38" fill="none" xmlns="http://www.w3.org/2000/svg">
<path d="M0.764648 18.9412C0.764648 29.4021 9.2449 37.8824 19.7058 37.8824C30.1667 37.8824 38.647 29.4021 38.647 18.9412C38.647 8.48025 30.1667 0 19.7058 0C9.2449 0 0.764648 8.48025 0.764648 18.9412Z" fill="#25D366"/>
<path fill-rule="evenodd" clip-rule="evenodd" d="M26.3354 12.1935C24.5596 10.4178 22.192 9.4707 19.7059 9.4707C14.4971 9.4707 10.2354 13.7325 10.2354 18.9413C10.2354 20.5986 10.7089 22.256 11.5376 23.6766L10.2354 28.4119L15.2074 27.1097C16.628 27.82 18.167 28.2935 19.7059 28.2935C24.9148 28.2935 29.1765 24.0317 29.1765 18.8229C29.1765 16.3369 28.1111 13.9692 26.3354 12.1935ZM19.7059 26.7545C18.2854 26.7545 16.8648 26.3994 15.6809 25.6891L15.4442 25.5707L12.4846 26.3994L13.3133 23.5582L13.0765 23.2031C12.2478 21.9009 11.8927 20.4803 11.8927 19.0597C11.8927 14.7979 15.4442 11.2464 19.7059 11.2464C21.8368 11.2464 23.731 12.0751 25.2699 13.4957C26.8089 15.0347 27.5192 16.9288 27.5192 19.0597C27.5192 23.2031 24.0861 26.7545 19.7059 26.7545ZM23.9677 20.8354C23.7309 20.717 22.5471 20.1251 22.3104 20.1251C22.0736 20.0067 21.9552 20.0067 21.8368 20.2435C21.7184 20.4803 21.2449 20.9538 21.1265 21.1906C21.0082 21.3089 20.8897 21.3089 20.653 21.3089C20.4162 21.1906 19.706 20.9538 18.7589 20.1251C18.0486 19.5332 17.5751 18.7045 17.4567 18.4678C17.3383 18.231 17.4567 18.1126 17.5751 17.9942C17.6935 17.8759 17.8118 17.7575 17.9302 17.6391C18.0486 17.5207 18.0486 17.4023 18.167 17.2839C18.2854 17.1656 18.167 17.0472 18.167 16.9288C18.167 16.8104 17.6934 15.6266 17.4567 15.1531C17.3383 14.7979 17.1015 14.7979 16.9832 14.7979C16.8648 14.7979 16.7464 14.7979 16.5096 14.7979C16.3912 14.7979 16.1545 14.7979 15.9177 15.0347C15.6809 15.2714 15.089 15.8633 15.089 17.0472C15.089 18.231 15.9177 19.2964 16.0361 19.5332C16.1545 19.6516 17.6934 22.1376 20.0611 23.0847C22.0736 23.9134 22.4287 23.6766 22.9023 23.6766C23.3758 23.6766 24.3229 23.0847 24.4412 22.6111C24.678 22.0192 24.678 21.5457 24.5596 21.5457C24.4412 20.9538 24.2045 20.9538 23.9677 20.8354Z" fill="white"/>
</svg>
