<svg width="15" height="15" viewBox="0 0 15 15" fill="none" xmlns="http://www.w3.org/2000/svg">
<g id="brush">
<path id="Vector" d="M4.68671 10C5.03046 10 5.31171 10.2812 5.31171 10.625C5.31171 11.3125 4.74921 11.875 4.06171 11.875C3.95546 11.875 3.85546 11.8625 3.74921 11.8438C3.94296 11.5 4.06171 11.0875 4.06171 10.625C4.06171 10.2812 4.34296 10 4.68671 10ZM11.9805 1.875C11.818 1.875 11.6617 1.9375 11.5367 2.05625L5.93671 7.65625L7.65546 9.375L13.2555 3.775C13.4992 3.53125 13.4992 3.1375 13.2555 2.89375L12.418 2.05625C12.293 1.93125 12.1367 1.875 11.9805 1.875ZM4.68671 8.75C3.64921 8.75 2.81171 9.5875 2.81171 10.625C2.81171 11.4438 2.08671 11.875 1.56171 11.875C2.13671 12.6375 3.11796 13.125 4.06171 13.125C5.44296 13.125 6.56171 12.0063 6.56171 10.625C6.56171 9.5875 5.72421 8.75 4.68671 8.75Z" fill="#3871DE"/>
</g>
</svg>
