<svg width="16" height="16" viewBox="0 0 16 16" fill="none" xmlns="http://www.w3.org/2000/svg">
<g id="center_focus_weak">
<path id="Vector" d="M3.33333 10H2V12.6667C2 13.4 2.6 14 3.33333 14H6V12.6667H3.33333V10ZM3.33333 3.33333H6V2H3.33333C2.6 2 2 2.6 2 3.33333V6H3.33333V3.33333ZM8 5.33333C6.52667 5.33333 5.33333 6.52667 5.33333 8C5.33333 9.47333 6.52667 10.6667 8 10.6667C9.47333 10.6667 10.6667 9.47333 10.6667 8C10.6667 6.52667 9.47333 5.33333 8 5.33333ZM8 9.33333C7.26667 9.33333 6.66667 8.73333 6.66667 8C6.66667 7.26667 7.26667 6.66667 8 6.66667C8.73333 6.66667 9.33333 7.26667 9.33333 8C9.33333 8.73333 8.73333 9.33333 8 9.33333ZM12.6667 2H10V3.33333H12.6667V6H14V3.33333C14 2.6 13.4 2 12.6667 2ZM12.6667 12.6667H10V14H12.6667C13.4 14 14 13.4 14 12.6667V10H12.6667V12.6667Z" fill="#3871DE"/>
</g>
</svg>
