<svg width="14" height="14" viewBox="0 0 14 14" fill="none" xmlns="http://www.w3.org/2000/svg">
<g id="crop_rotate" clip-path="url(#clip0_0_2450)">
<path id="Vector" d="M4.3575 12.5358C2.45 11.6258 1.085 9.77667 0.875 7.58333H0C0.2975 11.1767 3.30167 14 6.97083 14C7.105 14 7.2275 13.9883 7.35583 13.9825L5.13333 11.7542L4.3575 12.5358ZM7.02917 0C6.895 0 6.7725 0.0116667 6.64417 0.0233333L8.86667 2.24583L9.6425 1.47C11.55 2.37417 12.915 4.22333 13.125 6.41667H14C13.7025 2.82333 10.6983 0 7.02917 0ZM9.33333 8.16667H10.5V4.66667C10.5 4.01917 9.975 3.5 9.33333 3.5H5.83333V4.66667H9.33333V8.16667ZM4.66667 9.33333V2.33333H3.5V3.5H2.33333V4.66667H3.5V9.33333C3.5 9.975 4.01917 10.5 4.66667 10.5H9.33333V11.6667H10.5V10.5H11.6667V9.33333H4.66667Z" fill="#3871DE"/>
</g>
<defs>
<clipPath id="clip0_0_2450">
<rect width="14" height="14" fill="white"/>
</clipPath>
</defs>
</svg>
