<svg width="60" height="60" viewBox="0 0 60 60" fill="none" xmlns="http://www.w3.org/2000/svg">
<rect opacity="0.5" width="60" height="60" rx="30" fill="#C5DCFA"/>
<path d="M28.3332 20.0002V13.3335H11.6665V43.3335H34.9998V40.0002H28.3332V36.6668H31.6665V33.3335H28.3332V30.0002H31.6665V26.6668H28.3332V23.3335H41.6665V33.3335H44.9998V20.0002H28.3332ZM18.3332 40.0002H14.9998V36.6668H18.3332V40.0002ZM18.3332 33.3335H14.9998V30.0002H18.3332V33.3335ZM18.3332 26.6668H14.9998V23.3335H18.3332V26.6668ZM18.3332 20.0002H14.9998V16.6668H18.3332V20.0002ZM24.9998 40.0002H21.6665V36.6668H24.9998V40.0002ZM24.9998 33.3335H21.6665V30.0002H24.9998V33.3335ZM24.9998 26.6668H21.6665V23.3335H24.9998V26.6668ZM24.9998 20.0002H21.6665V16.6668H24.9998V20.0002ZM48.3332 40.0002V43.3335H44.9998V46.6668H41.6665V43.3335H38.3332V40.0002H41.6665V36.6668H44.9998V40.0002H48.3332ZM38.3332 26.6668H34.9998V30.0002H38.3332V26.6668ZM38.3332 33.3335H34.9998V36.6668H38.3332V33.3335Z" fill="#3871DE"/>
</svg>
