<svg width="60" height="60" viewBox="0 0 60 60" fill="none" xmlns="http://www.w3.org/2000/svg">
<rect opacity="0.5" width="60" height="60" rx="30" fill="#C5DCFA"/>
<path d="M34.75 15.75H18.9167C17.175 15.75 15.7658 17.175 15.7658 18.9167L15.75 41.0833C15.75 42.825 17.1592 44.25 18.9008 44.25H41.0833C42.825 44.25 44.25 42.825 44.25 41.0833V25.25L34.75 15.75ZM18.9167 41.0833V18.9167H33.1667V26.8333H41.0833V41.0833H18.9167ZM25.25 23.6667C25.25 24.5375 24.5375 25.25 23.6667 25.25C22.7958 25.25 22.0833 24.5375 22.0833 23.6667C22.0833 22.7958 22.7958 22.0833 23.6667 22.0833C24.5375 22.0833 25.25 22.7958 25.25 23.6667ZM25.25 30C25.25 30.8708 24.5375 31.5833 23.6667 31.5833C22.7958 31.5833 22.0833 30.8708 22.0833 30C22.0833 29.1292 22.7958 28.4167 23.6667 28.4167C24.5375 28.4167 25.25 29.1292 25.25 30ZM25.25 36.3333C25.25 37.2042 24.5375 37.9167 23.6667 37.9167C22.7958 37.9167 22.0833 37.2042 22.0833 36.3333C22.0833 35.4625 22.7958 34.75 23.6667 34.75C24.5375 34.75 25.25 35.4625 25.25 36.3333Z" fill="#3871DE"/>
</svg>
