<svg width="60" height="60" viewBox="0 0 60 60" fill="none" xmlns="http://www.w3.org/2000/svg">
<rect opacity="0.5" width="60" height="60" rx="30" fill="#C5DCFA"/>
<path d="M40.9567 19.9327C40.64 18.9985 39.7533 18.3335 38.7083 18.3335H21.2917C20.2467 18.3335 19.3758 18.9985 19.0433 19.9327L15.75 29.4168V42.0835C15.75 42.9543 16.4625 43.6668 17.3333 43.6668H18.9167C19.7875 43.6668 20.5 42.9543 20.5 42.0835V40.5002H39.5V42.0835C39.5 42.9543 40.2125 43.6668 41.0833 43.6668H42.6667C43.5375 43.6668 44.25 42.9543 44.25 42.0835V29.4168L40.9567 19.9327ZM21.8458 21.5002H38.1383L39.785 26.2502H20.1992L21.8458 21.5002ZM41.0833 37.3335H18.9167V29.4168H41.0833V37.3335Z" fill="#3871DE"/>
<path d="M22.875 35.7502C24.1867 35.7502 25.25 34.6868 25.25 33.3752C25.25 32.0635 24.1867 31.0002 22.875 31.0002C21.5633 31.0002 20.5 32.0635 20.5 33.3752C20.5 34.6868 21.5633 35.7502 22.875 35.7502Z" fill="#3871DE"/>
<path d="M37.125 35.7502C38.4367 35.7502 39.5 34.6868 39.5 33.3752C39.5 32.0635 38.4367 31.0002 37.125 31.0002C35.8133 31.0002 34.75 32.0635 34.75 33.3752C34.75 34.6868 35.8133 35.7502 37.125 35.7502Z" fill="#3871DE"/>
</svg>
