<svg width="60" height="60" viewBox="0 0 60 60" fill="none" xmlns="http://www.w3.org/2000/svg">
<rect opacity="0.5" width="60" height="60" rx="30" fill="#C5DCFA"/>
<path d="M34.625 35H38.75C39.5063 35 40.125 34.3813 40.125 33.625V25.375C40.125 24.6188 39.5063 24 38.75 24H34.625C33.8687 24 33.25 24.6188 33.25 25.375V33.625C33.25 34.3813 33.8687 35 34.625 35ZM36 26.75H37.375V32.25H36V26.75ZM26.375 35H30.5C31.2563 35 31.875 34.3813 31.875 33.625V25.375C31.875 24.6188 31.2563 24 30.5 24H26.375C25.6187 24 25 24.6188 25 25.375V33.625C25 34.3813 25.6187 35 26.375 35ZM27.75 26.75H29.125V32.25H27.75V26.75ZM20.875 24H23.625V35H20.875V24ZM16.75 18.5V40.5H44.25V18.5H16.75ZM41.5 37.75H19.5V21.25H41.5V37.75Z" fill="#3871DE"/>
</svg>
