<svg width="60" height="60" viewBox="0 0 60 60" fill="none" xmlns="http://www.w3.org/2000/svg">
<rect opacity="0.5" width="60" height="60" rx="30" fill="#C5DCFA"/>
<path d="M30.5003 14.917C22.4503 14.917 15.917 21.4503 15.917 29.5003C15.917 37.5503 22.4503 44.0837 30.5003 44.0837C38.5503 44.0837 45.0837 37.5503 45.0837 29.5003C45.0837 21.4503 38.5503 14.917 30.5003 14.917ZM30.5003 41.167C24.0691 41.167 18.8337 35.9316 18.8337 29.5003C18.8337 23.0691 24.0691 17.8337 30.5003 17.8337C36.9316 17.8337 42.167 23.0691 42.167 29.5003C42.167 35.9316 36.9316 41.167 30.5003 41.167Z" fill="#3871DE"/>
<path d="M32.9735 32.0786H29.177V33.8971H35.4159V36.0143H29.177V39H26.1239V36.0143H24V33.8971H26.1239V32.0786H24V29.2829H26.1239V20H32.9735C34.6549 20 36.0796 20.5971 37.2478 21.7914C38.4159 22.9495 39 24.3881 39 26.1071C39 27.79 38.4159 29.2105 37.2478 30.3686C36.0796 31.5086 34.6549 32.0786 32.9735 32.0786ZM32.9735 22.9314H29.177V29.2829H32.9735C33.823 29.2829 34.5221 28.9752 35.0708 28.36C35.6549 27.7448 35.9469 26.9938 35.9469 26.1071C35.9469 25.2205 35.6549 24.4695 35.0708 23.8543C34.5221 23.239 33.823 22.9314 32.9735 22.9314Z" fill="#3871DE"/>
</svg>
