<svg width="143" height="56" viewBox="0 0 143 56" fill="none" xmlns="http://www.w3.org/2000/svg">
<path d="M78.8036 14V26.0187H75.9192V15.0576L76.6243 15.1057L71.7367 26.0187H68.6439L63.7563 15.1378L64.4614 15.0737V26.0187H61.5769V14H66.2401L70.8072 24.5123H69.5893L74.1404 14H78.8036Z" fill="#00082D"/>
<path d="M91.2502 18.8876V21.1311H82.5487V18.8876H91.2502ZM84.5999 20.0093L83.7987 24.977L82.5327 23.5508H91.763V26.0187H80.77L81.6994 20.0093L80.77 14H91.6829V16.4678H82.5327L83.7987 15.0416L84.5999 20.0093Z" fill="#00082D"/>
<path d="M97.3933 15.3301H100.422V26.0187H97.3933V15.3301ZM92.714 14H105.101V16.6762H92.714V14Z" fill="#00082D"/>
<path d="M106.745 23.5989V21.1631H115.045V23.5989H106.745ZM112.93 14L118.475 26.0187H115.254L110.494 15.266H111.424L106.68 26.0187H103.459L109.004 14H112.93Z" fill="#00082D"/>
<path d="M122.727 14V24.6726L121.365 23.3425H130.371V26.0187H119.698V14H122.727Z" fill="#00082D"/>
<path d="M134.855 14V24.6726L133.493 23.3425H142.499V26.0187H131.827V14H134.855Z" fill="#00082D"/>
<path d="M61 38.5083H64.0608C64.1142 38.8715 64.2798 39.192 64.5575 39.4698C64.8353 39.7476 65.2039 39.9612 65.6632 40.1108C66.1333 40.2604 66.6782 40.3351 67.2978 40.3351C68.1845 40.3351 68.8789 40.2123 69.381 39.9666C69.8938 39.7209 70.1502 39.3736 70.1502 38.9249C70.1502 38.5831 70.0006 38.3213 69.7015 38.1397C69.4131 37.9474 68.8682 37.8085 68.067 37.7231L65.7434 37.4827C64.1302 37.3225 62.9604 36.9485 62.2339 36.361C61.5181 35.7734 61.1602 34.9721 61.1602 33.9572C61.1602 33.156 61.3953 32.4723 61.8653 31.9061C62.3461 31.3398 63.0138 30.9072 63.8685 30.608C64.7338 30.3089 65.7434 30.1593 66.8972 30.1593C68.0403 30.1593 69.0498 30.3249 69.9259 30.6561C70.8019 30.9873 71.5016 31.4467 72.0251 32.0342C72.5486 32.6218 72.8317 33.3056 72.8744 34.0854H69.8137C69.771 33.7649 69.6214 33.4925 69.365 33.2682C69.1193 33.0331 68.7828 32.8515 68.3554 32.7233C67.9388 32.5844 67.4313 32.515 66.8331 32.515C66.0318 32.515 65.3908 32.6325 64.9101 32.8675C64.44 33.0919 64.205 33.4177 64.205 33.8451C64.205 34.1656 64.3439 34.4166 64.6216 34.5982C64.9101 34.7798 65.4175 34.9134 66.144 34.9989L68.5958 35.2713C69.7175 35.3888 70.6149 35.5757 71.288 35.8321C71.961 36.0885 72.4471 36.4411 72.7462 36.8898C73.0454 37.3385 73.1949 37.9047 73.1949 38.5884C73.1949 39.411 72.9439 40.1322 72.4418 40.7518C71.9503 41.3607 71.2559 41.8361 70.3585 42.178C69.4718 42.5199 68.4355 42.6908 67.2497 42.6908C66.0211 42.6908 64.9421 42.5145 64.0127 42.162C63.0939 41.8094 62.3675 41.3233 61.8333 40.7037C61.3098 40.0734 61.032 39.3416 61 38.5083Z" fill="#00082D"/>
<path d="M78.2855 31.7458H81.3142V42.4344H78.2855V31.7458ZM73.6062 30.4157H85.9934V33.0919H73.6062V30.4157Z" fill="#00082D"/>
<path d="M93.4352 42.6908C92.0251 42.6908 90.7858 42.4291 89.7175 41.9056C88.6598 41.3821 87.8372 40.6503 87.2496 39.7102C86.6621 38.77 86.3683 37.675 86.3683 36.4251C86.3683 35.1751 86.6621 34.0801 87.2496 33.14C87.8372 32.1998 88.6598 31.468 89.7175 30.9446C90.7858 30.4211 92.0251 30.1593 93.4352 30.1593C94.8454 30.1593 96.0793 30.4211 97.137 30.9446C98.2053 31.468 99.0333 32.1998 99.6208 33.14C100.219 34.0801 100.518 35.1751 100.518 36.4251C100.518 37.675 100.219 38.77 99.6208 39.7102C99.0333 40.6503 98.2053 41.3821 97.137 41.9056C96.0793 42.4291 94.8454 42.6908 93.4352 42.6908ZM93.4352 39.9826C94.2685 39.9826 94.9843 39.8437 95.5826 39.5659C96.1808 39.2775 96.6402 38.8662 96.9607 38.332C97.2919 37.7979 97.4575 37.1622 97.4575 36.4251C97.4575 35.6879 97.2919 35.0523 96.9607 34.5181C96.6402 33.9839 96.1808 33.578 95.5826 33.3002C94.9843 33.0118 94.2685 32.8675 93.4352 32.8675C92.6126 32.8675 91.9022 33.0118 91.3039 33.3002C90.7057 33.578 90.2409 33.9839 89.9098 34.5181C89.5786 35.0523 89.413 35.6879 89.413 36.4251C89.413 37.1622 89.5786 37.7979 89.9098 38.332C90.2409 38.8662 90.7057 39.2775 91.3039 39.5659C91.9022 39.8437 92.6126 39.9826 93.4352 39.9826Z" fill="#00082D"/>
<path d="M104.411 35.7039H108.914C109.48 35.7039 109.929 35.5757 110.26 35.3194C110.592 35.0523 110.757 34.6837 110.757 34.2136C110.757 33.7436 110.592 33.3803 110.26 33.1239C109.929 32.8569 109.48 32.7233 108.914 32.7233H103.979L105.341 31.233V42.4344H102.312V30.4157H109.315C110.212 30.4157 110.998 30.576 111.671 30.8965C112.344 31.217 112.867 31.6603 113.241 32.2265C113.615 32.7928 113.802 33.4551 113.802 34.2136C113.802 34.9615 113.615 35.6185 113.241 36.1847C112.867 36.7509 112.344 37.1943 111.671 37.5148C110.998 37.8246 110.212 37.9795 109.315 37.9795H104.411V35.7039ZM106.35 36.8097H109.764L114.186 42.4344H110.677L106.35 36.8097Z" fill="#00082D"/>
<path d="M125.882 35.3033V37.5468H117.181V35.3033H125.882ZM119.232 36.4251L118.431 41.3928L117.165 39.9666H126.395V42.4344H115.402L116.331 36.4251L115.402 30.4157H126.315V32.8836H117.165L118.431 31.4574L119.232 36.4251Z" fill="#00082D"/>
<rect x="2.81104" y="4.38477" width="50.4916" height="49.0281" rx="11.8072" fill="#3871DE"/>
<rect x="28.4248" y="29.1445" width="4.37738" height="4.79715" rx="0.547173" fill="white"/>
<rect x="23.5" y="29.1445" width="4.37738" height="4.79715" rx="0.547173" fill="white"/>
<rect x="23.5" y="34.5059" width="4.37738" height="4.79715" rx="0.547173" fill="white"/>
<rect x="28.4248" y="34.5059" width="4.37738" height="4.79715" rx="0.547173" fill="white"/>
<path d="M13.4801 35.7435L28.215 21.5083C28.3094 21.4171 28.4597 21.4186 28.5522 21.5117L42.6128 35.6557C42.8833 35.9278 43.2512 36.0808 43.6349 36.0808H46.9814C47.3396 36.0808 47.5178 35.6467 47.2629 35.395L29.0502 17.4124C28.68 17.0469 28.0862 17.0423 27.7105 17.4022L9.07279 35.2535C8.76008 35.553 8.97208 36.0808 9.40509 36.0808H12.6457C12.957 36.0808 13.2562 35.9599 13.4801 35.7435Z" fill="white"/>
</svg>
